<svg xmlns="http://www.w3.org/2000/svg" xmlns:xlink="http://www.w3.org/1999/xlink" version="1.0" id="Layer_1" x="0px" y="0px" width="142" height="31" viewBox="0 0 142 31" style="enable-background:new 0 0 142 31;" xml:space="preserve">
<g>
	<path style="fill:#FFFFFF;" d="M131,25v-2h10.5v2H131z M141.5,14v2h-0.7c0.6,0.5,0.9,1.3,0.9,2.1   c0,2.1-1.7,3.4-3.6,3.4c-2.2,0-3.5-1.7-3.5-3.4c0-1.1,0.5-1.5,0.9-2H135v-2H141.5z M138.2,19.5c0.6,0,1.7-0.4,1.7-1.6   c0-0.7-0.3-1.1-0.7-1.4c-0.3-0.2-0.6-0.2-0.9-0.3c-0.3,0-0.6,0-0.9,0.2c-0.5,0.2-0.9,0.7-0.9,1.5C136.5,19,137.4,19.5,138.2,19.5   L138.2,19.5z M131,13v-2h3.9h0.5c-0.8-1-0.8-1.7-0.8-2c0-1.4,1-3.3,3.5-3.3c2.4,0,3.6,1.7,3.6,3.4c0,0.9-0.5,1.4-0.9,1.9h0.7v2H131   z M138.2,7.5c-0.9,0-1.7,0.7-1.7,1.7c0,1.1,0.8,1.7,1.7,1.7c0.9,0,1.7-0.7,1.7-1.7C139.9,8.2,139,7.5,138.2,7.5L138.2,7.5z    M21.8,18.5l2.5,5.1l2.5-5.1H21.8z M68,12.8l-5.1,2.5l5.1,2.5V12.8z M124.8,25l-2.5-5.1l-2.5,5.1H124.8z"/>
	<path style="fill:#FFFFFF;" d="M33.7,25h-3.6l-5.7-12.2L18.7,25h-3.6l9.3-20L33.7,25z M70.5,9.5v-4h-7.9h-1.8H59V25   h1.7h1.8h7.9v-3.5h-8v-12H70.5z M3.5,5.5H0V25h3.5V5.5z M8,15.3l6.7-9.8h-4.3l-6.7,9.8l6.7,9.7h4.3L8,15.3z M103,5.5h-4V25h4V5.5z    M107.3,15.3l6.7-9.8h-4.3l-6.7,9.8l6.7,9.7h4.3L107.3,15.3z M82.7,17.5c1.8-1.2,2.9-3.1,2.9-5.3c0-2.4-1.1-4.4-3-5.5   c-1.3-0.7-2.8-1.2-4.9-1.2H73l0,0V25h4v-9.7V9.5h0.7c2.5,0,4.2,0.5,4.2,2.8c0,2.1-2,3-4.5,3.1c-0.1,0-0.5,0-0.5,0v0l6.7,9.7h4.3   L82.7,17.5z M53.9,6.7c-1.3-0.7-2.8-1.2-4.9-1.2h-4.5l0,0V25H48v-9.7V9.5h1c2.5,0,4.2,0.5,4.2,2.8c0,2.1-2,3-4.4,3.1   c-0.1,0-0.4,0-0.4,0v0l2.3,3.4c1.2-0.2,2.2-0.6,3.1-1.1c0.1,0,0.1-0.1,0.2-0.1c1.8-1.2,2.9-3.2,2.9-5.3C56.9,9.8,55.9,7.8,53.9,6.7   z M126.7,5.5l-4.5,7.7l-4.5-7.7h-3.6l8.1,14l8.1-14H126.7z M33.4,27.6l1.5,3.2c7-5.4,8.3-11.4,3.8-17.9C35,7.9,39,3.3,40.2,2.2   L37.5,0c-1.8,1.9-6.4,8-2.3,14.1C39.1,19.9,38.7,23.1,33.4,27.6z M88.1,27.6l1.5,3.2c7-5.4,8.3-11.4,3.8-17.9   c-3.6-5.1,0.4-9.7,1.6-10.8L92.3,0c-1.8,1.9-6.4,8-2.3,14.1C93.8,19.9,93.4,23.1,88.1,27.6z"/>
</g>
</svg>